<svg xmlns="http://www.w3.org/2000/svg" xmlns:xlink="http://www.w3.org/1999/xlink" width="500" zoomAndPan="magnify" viewBox="0 0 375 149.999998" height="200" preserveAspectRatio="xMidYMid meet" version="1.0"><defs><g/><clipPath id="c6f92b689a"><path d="M 0 29.882812 L 90 29.882812 L 90 119.882812 L 0 119.882812 Z M 0 29.882812 " clip-rule="nonzero"/></clipPath></defs><path fill="#3300ff" d="M 33.140625 60.652344 L 33.140625 60.949219 L 33.28125 60.597656 Z M 33.140625 60.652344 " fill-opacity="1" fill-rule="nonzero"/><path fill="#3300ff" d="M 54.1875 59.542969 L 45.0625 55.914062 L 35.9375 59.542969 L 45.0625 63.167969 Z M 54.1875 59.542969 " fill-opacity="1" fill-rule="nonzero"/><path fill="#3300ff" d="M 33.140625 63.46875 L 33.140625 75.460938 L 45.0625 80.195312 L 56.984375 75.460938 L 56.984375 63.46875 L 45.0625 68.203125 Z M 33.140625 63.46875 " fill-opacity="1" fill-rule="nonzero"/><g clip-path="url(#c6f92b689a)"><path fill="#3300ff" d="M 45.0625 29.855469 C 20.15625 29.855469 -0.0351562 50.046875 -0.0351562 74.953125 C -0.0351562 99.863281 20.15625 120.054688 45.0625 120.054688 C 69.96875 120.054688 90.160156 99.863281 90.160156 74.953125 C 90.160156 50.046875 69.96875 29.855469 45.0625 29.855469 Z M 45.304688 101.726562 C 38.027344 94.476562 23.632812 78.226562 23.632812 68.929688 C 23.632812 56.980469 33.355469 47.257812 45.304688 47.257812 C 57.257812 47.257812 66.980469 56.980469 66.980469 68.929688 C 66.980469 78.226562 52.585938 94.476562 45.304688 101.726562 Z M 45.304688 101.726562 " fill-opacity="1" fill-rule="nonzero"/></g><path fill="#3300ff" d="M 56.984375 60.949219 L 56.984375 60.652344 L 56.84375 60.597656 Z M 56.984375 60.949219 " fill-opacity="1" fill-rule="nonzero"/><g fill="#3300ff" fill-opacity="1"><g transform="translate(99.68659, 98.557069)"><g><path d="M 19.421875 0.65625 L 16.46875 0.140625 L 13.65625 -0.859375 L 12.203125 -1.296875 L 10.828125 -1.953125 L 9.828125 -3.03125 L 7.296875 -4.625 L 6.359375 -5.703125 L 5.34375 -6.640625 L 3.96875 -9.3125 L 3.53125 -10.609375 L 3.25 -12.0625 L 3.03125 -13.5 L 3.609375 -15.015625 L 4.90625 -15.59375 L 10.46875 -15.890625 L 11.84375 -15.671875 L 13.140625 -15.8125 L 14.59375 -15.234375 L 16.96875 -12.640625 L 18.203125 -11.84375 L 19.421875 -11.1875 L 23.109375 -10.828125 L 24.40625 -11.046875 L 26.65625 -11.1875 L 29.109375 -12.28125 L 30.046875 -13.359375 L 30.625 -15.171875 L 30.1875 -16.96875 L 29.25 -17.84375 L 26.65625 -19.0625 L 15.3125 -20.359375 L 12.703125 -21.234375 L 7.796875 -23.90625 L 5.125 -27.21875 L 3.96875 -29.75 L 3.46875 -32.640625 L 3.390625 -34.875 L 3.609375 -38.421875 L 4.90625 -42.390625 L 7.4375 -45.78125 L 10.90625 -48.171875 L 13.359375 -49.609375 L 16.109375 -50.484375 L 17.40625 -50.703125 L 18.84375 -50.765625 L 20.4375 -51.203125 L 26 -51.0625 L 28.8125 -50.484375 L 32.859375 -49.109375 L 37.625 -45.78125 L 39.21875 -43.625 L 41.234375 -39.859375 L 41.375 -38.5 L 41.671875 -37.125 L 41.09375 -35.890625 L 39.71875 -34.875 L 38.421875 -35.03125 L 36.96875 -35.03125 L 35.03125 -35.171875 L 31.625 -34.875 L 30.046875 -35.828125 L 28.953125 -37.265625 L 27.734375 -38.28125 L 26.4375 -39.140625 L 25.125 -39.5 L 22.828125 -39.796875 L 20.515625 -39.71875 L 19.203125 -39.4375 L 18.046875 -38.78125 L 16.96875 -37.984375 L 16.109375 -37.046875 L 15.75 -35.09375 L 16.03125 -32.9375 L 17.109375 -31.921875 L 19.78125 -30.625 L 23.609375 -29.828125 L 25.703125 -29.828125 L 27.21875 -29.53125 L 28.671875 -29.46875 L 30.109375 -29.25 L 35.75 -27.515625 L 37.046875 -26.71875 L 38.203125 -26.140625 L 39.5 -24.984375 L 41.375 -22.828125 L 42.171875 -21.671875 L 43.265625 -17.484375 L 43.40625 -15.171875 L 42.96875 -11.5625 L 42.53125 -10.328125 L 42.109375 -9.03125 L 41.3125 -7.4375 L 40.59375 -6.421875 L 38.5 -4.265625 L 33.578125 -1.296875 L 32.203125 -0.65625 L 30.90625 -0.5 L 29.46875 0.078125 L 28.015625 0.28125 L 26.578125 0.65625 L 25.125 0.796875 Z M 19.421875 0.65625 "/></g></g></g><g fill="#3300ff" fill-opacity="1"><g transform="translate(145.744872, 98.557069)"><g><path d="M 9.671875 0.21875 L 8.375 0.140625 L 6.140625 -0.578125 L 5.34375 -1.953125 L 5.421875 -15.3125 L 5.265625 -16.6875 L 5.34375 -35.390625 L 5.203125 -36.765625 L 5.484375 -39.640625 L 5.421875 -48.390625 L 6.0625 -49.546875 L 7.578125 -50.34375 L 9.09375 -50.625 L 10.40625 -50.40625 L 11.984375 -50.34375 L 16.46875 -50.625 L 17.90625 -50.40625 L 22.3125 -50.34375 L 23.90625 -50.546875 L 26.21875 -50.625 L 28.375 -50.546875 L 29.828125 -50.046875 L 31.265625 -50.046875 L 32.5 -49.546875 L 35.390625 -48.671875 L 37.765625 -47.09375 L 41.015625 -44.265625 L 42.75 -41.890625 L 44.125 -39.4375 L 45 -36.765625 L 45.203125 -35.171875 L 45.5 -33.9375 L 45.359375 -28.015625 L 44.921875 -26.859375 L 44.703125 -25.28125 L 43.46875 -22.453125 L 41.953125 -20.15625 L 41.015625 -19.0625 L 40.078125 -18.125 L 39.0625 -16.96875 L 37.984375 -16.109375 L 31.125 -13.359375 L 23.6875 -12.78125 L 22.171875 -13.078125 L 20.578125 -12.921875 L 18.921875 -12.125 L 18.265625 -10.828125 L 18.34375 -9.171875 L 18.203125 -7.796875 L 18.34375 -5.125 L 18.265625 -3.53125 L 18.34375 -2.09375 L 17.6875 -0.578125 L 16.171875 0 L 14.515625 0.140625 L 13.21875 0.078125 Z M 20.515625 -24.484375 L 22.25 -24.625 L 25.921875 -24.546875 L 28.171875 -24.84375 L 29.328125 -25.203125 L 30.46875 -26.078125 L 31.421875 -27.21875 L 32.0625 -28.375 L 32.578125 -29.6875 L 32.71875 -31.625 L 32.578125 -33.65625 L 32.359375 -34.953125 L 31.625 -36.390625 L 30.6875 -37.34375 L 29.53125 -38.125 L 28.09375 -38.78125 L 20.578125 -39 L 19.0625 -38.28125 L 18.34375 -36.90625 L 18.34375 -33.9375 L 18.203125 -32.421875 L 18.421875 -26.578125 L 19.0625 -25.34375 Z M 20.515625 -24.484375 "/></g></g></g><g fill="#3300ff" fill-opacity="1"><g transform="translate(193.246961, 98.557069)"><g><path d="M 28.953125 0.9375 L 24.625 0.71875 L 18.484375 -1.078125 L 17.109375 -1.65625 L 12.203125 -4.265625 L 11.265625 -5.34375 L 9.25 -7.296875 L 5.84375 -11.921875 L 5.125 -13.21875 L 4.6875 -14.734375 L 3.609375 -17.1875 L 2.8125 -21.734375 L 3.109375 -30.109375 L 3.6875 -33.21875 L 5.0625 -37.1875 L 5.703125 -38.421875 L 8.15625 -42.03125 L 10.109375 -44.203125 L 12.421875 -45.78125 L 13.4375 -46.65625 L 17.109375 -48.96875 L 19.859375 -49.6875 L 21.15625 -50.265625 L 22.609375 -50.703125 L 24.046875 -50.984375 L 29.109375 -51.28125 L 32.5 -51.203125 L 41.953125 -48.234375 L 45.640625 -45.9375 L 48.75 -43.109375 L 49.6875 -41.8125 L 50.546875 -40.953125 L 51.484375 -39.71875 L 52 -38.421875 L 53.296875 -36.03125 L 53.65625 -34.375 L 54.234375 -32.859375 L 54.8125 -30.1875 L 55.171875 -25.203125 L 54.8125 -20.15625 L 54.53125 -18.5625 L 54.09375 -17.40625 L 53.875 -15.953125 L 53.375 -14.59375 L 50.546875 -9.609375 L 49.609375 -8.3125 L 44.5625 -3.46875 L 38.125 -0.578125 L 35.390625 0.28125 Z M 26.9375 -11.765625 L 31.125 -11.921875 L 32.5 -12.28125 L 33.796875 -12.421875 L 34.953125 -13.078125 L 36.25 -13.65625 L 38.5 -15.375 L 39.359375 -16.6875 L 40.015625 -17.765625 L 40.796875 -18.84375 L 41.453125 -21.8125 L 41.890625 -25.421875 L 41.59375 -28.53125 L 41.09375 -29.828125 L 40.65625 -31.265625 L 40.078125 -32.578125 L 38.421875 -35.03125 L 36.1875 -36.6875 L 32.359375 -38.34375 L 28.890625 -38.5625 L 25.5625 -38.28125 L 24.046875 -37.921875 L 22.75 -37.265625 L 20.65625 -35.828125 L 19.578125 -34.875 L 18.625 -33.71875 L 17.984375 -32.5 L 17.109375 -31.484375 L 16.6875 -30.1875 L 16.171875 -27.515625 L 16.109375 -25.34375 L 16.46875 -21.734375 L 17.84375 -17.6875 L 18.78125 -16.6875 L 19.5 -15.671875 L 21.734375 -13.71875 L 24.1875 -12.421875 L 25.5 -12.28125 Z M 26.9375 -11.765625 "/></g></g></g><g fill="#3300ff" fill-opacity="1"><g transform="translate(251.144646, 98.557069)"><g><path d="M 18.84375 0.140625 L 16.609375 0.078125 L 14.515625 -0.65625 L 13.578125 -2.234375 L 13.71875 -3.609375 L 13.796875 -7.796875 L 13.65625 -9.3125 L 13.71875 -15.171875 L 13.859375 -16.609375 L 13.65625 -27.375 L 13.796875 -29.390625 L 13.71875 -30.84375 L 13.796875 -32.421875 L 13.65625 -34.453125 L 13.796875 -36.765625 L 13 -38.203125 L 11.625 -38.921875 L 4.765625 -39.0625 L 3.328125 -38.921875 L 2.015625 -39.640625 L 1.375 -40.953125 L 1.234375 -43.1875 L 1.375 -46.796875 L 1.296875 -48.234375 L 2.171875 -49.90625 L 3.53125 -50.625 L 8.59375 -50.34375 L 10.828125 -50.546875 L 15.09375 -50.34375 L 16.390625 -50.625 L 17.984375 -50.484375 L 19.5 -50.703125 L 20.875 -50.625 L 22.3125 -50.34375 L 28.171875 -50.625 L 29.53125 -50.484375 L 31.046875 -50.703125 L 32.421875 -50.546875 L 36.90625 -50.546875 L 38.28125 -49.609375 L 39.0625 -48.171875 L 39 -41.3125 L 38.125 -39.71875 L 36.90625 -38.921875 L 35.609375 -39 L 34.09375 -38.78125 L 31.421875 -39.140625 L 28.59375 -39 L 27.21875 -38.125 L 26.65625 -35.96875 L 26.4375 -29.6875 L 26.65625 -28.171875 L 26.5 -16.53125 L 26.71875 -14.953125 L 26.578125 -13.65625 L 26.65625 -10.765625 L 26.5 -9.25 L 26.71875 -6.5 L 26.5 -2.75 L 25.78125 -0.71875 L 23.6875 0 Z M 18.84375 0.140625 "/></g></g></g><g fill="#000000" fill-opacity="1"><g transform="translate(295.613775, 98.649489)"><g><path d="M 24.203125 0.28125 L 22.75 -0.078125 L 19.21875 -0.078125 L 17.046875 0.21875 L 14.15625 -0.078125 L 12.71875 0.078125 L 10.46875 0.140625 L 8.375 -0.140625 L 7 0 L 5.640625 0 L 4.1875 -0.65625 L 3.46875 -2.59375 L 3.6875 -9.25 L 4.484375 -10.546875 L 9.25 -11.984375 L 10.046875 -14.15625 L 9.828125 -36.328125 L 9.171875 -38.28125 L 7.796875 -39.15625 L 6.359375 -39.15625 L 4.765625 -39.953125 L 3.96875 -41.390625 L 4.125 -42.765625 L 3.90625 -48.109375 L 4.625 -49.84375 L 6.0625 -50.5625 L 7.734375 -50.5625 L 9.09375 -50.34375 L 15.03125 -50.34375 L 16.46875 -50.640625 L 17.765625 -50.484375 L 26.515625 -50.484375 L 27.8125 -49.703125 L 28.671875 -48.328125 L 28.609375 -41.171875 L 27.875 -40.015625 L 26.359375 -39.4375 L 24.921875 -39.21875 L 23.328125 -38.578125 L 22.828125 -36.90625 L 22.53125 -29.609375 L 22.828125 -24.421875 L 22.6875 -22.828125 L 22.75 -14.875 L 22.53125 -13.515625 L 23.40625 -11.84375 L 25.140625 -11.265625 L 26.65625 -11.265625 L 28.25 -10.46875 L 29.109375 -9.09375 L 29.109375 -1.953125 L 28.390625 -0.578125 L 27.09375 0.140625 Z M 24.203125 0.28125 "/></g></g></g><g fill="#000000" fill-opacity="1"><g transform="translate(328.40316, 98.649489)"><g><path d="M 18.859375 0.140625 L 16.609375 0.078125 L 14.515625 -0.65625 L 13.578125 -2.234375 L 13.71875 -3.609375 L 13.796875 -7.796875 L 13.65625 -9.3125 L 13.71875 -15.171875 L 13.875 -16.609375 L 13.65625 -27.375 L 13.796875 -29.40625 L 13.71875 -30.84375 L 13.796875 -32.4375 L 13.65625 -34.453125 L 13.796875 -36.765625 L 13 -38.21875 L 11.625 -38.9375 L 4.765625 -39.078125 L 3.328125 -38.9375 L 2.015625 -39.65625 L 1.375 -40.953125 L 1.234375 -43.203125 L 1.375 -46.8125 L 1.296875 -48.25 L 2.171875 -49.90625 L 3.546875 -50.640625 L 8.59375 -50.34375 L 10.828125 -50.5625 L 15.09375 -50.34375 L 16.390625 -50.640625 L 17.984375 -50.484375 L 19.5 -50.703125 L 20.875 -50.640625 L 22.328125 -50.34375 L 28.171875 -50.640625 L 29.546875 -50.484375 L 31.0625 -50.703125 L 32.4375 -50.5625 L 36.90625 -50.5625 L 38.28125 -49.625 L 39.078125 -48.1875 L 39 -41.3125 L 38.140625 -39.734375 L 36.90625 -38.9375 L 35.609375 -39 L 34.09375 -38.796875 L 31.421875 -39.15625 L 28.609375 -39 L 27.234375 -38.140625 L 26.65625 -35.96875 L 26.4375 -29.6875 L 26.65625 -28.171875 L 26.515625 -16.546875 L 26.734375 -14.953125 L 26.578125 -13.65625 L 26.65625 -10.765625 L 26.515625 -9.25 L 26.734375 -6.5 L 26.515625 -2.75 L 25.78125 -0.71875 L 23.6875 0 Z M 18.859375 0.140625 "/></g></g></g></svg>